<svg width="256" height="256" viewBox="0 0 256 256" fill="none" xmlns="http://www.w3.org/2000/svg">
<rect width="256" height="256" fill="#0F124D"/>
<path d="M195.41 170.513L132.028 212.996C130.524 214.006 128.748 214.54 126.933 214.528C125.118 214.515 123.349 213.957 121.859 212.926L60.4495 170.52C59.2537 169.695 58.2766 168.594 57.6021 167.311C56.9275 166.028 56.5755 164.601 56.5762 163.153V63.9705C56.5755 61.9816 57.2394 60.0489 58.4633 58.4767C59.6872 56.9045 61.4017 55.782 63.3369 55.2859L108.169 43.7556C119.634 40.8062 131.652 40.7123 143.162 43.4822L192.523 55.363C194.489 55.8349 196.239 56.9514 197.491 58.533C198.743 60.1146 199.424 62.0693 199.424 64.0827V163.069C199.424 164.54 199.06 165.988 198.365 167.286C197.67 168.584 196.665 169.692 195.438 170.513" fill="#EEBD23"/>
<path d="M194.692 95.0431H190.6H187.255V91.2861C187.192 87.3188 187.129 83.3515 187.044 79.3702C186.979 78.9443 186.83 78.5356 186.603 78.1683C186.377 77.8011 186.079 77.4828 185.727 77.2324C151.719 52.8749 104.697 52.7768 70.5346 76.917C69.9842 77.2377 69.5317 77.7012 69.2253 78.2579C68.9189 78.8147 68.7702 79.4438 68.7951 80.0782C68.6754 93.9497 68.4641 107.821 68.2881 121.693C68.2881 122.429 68.2881 123.172 68.2881 124.034H106.127C106.285 123.753 106.415 123.457 106.514 123.151C107.346 119.23 109.245 115.613 112.002 112.693C114.759 109.773 118.27 107.664 122.15 106.595C126.03 105.526 130.13 105.538 134.004 106.631C137.877 107.724 141.374 109.854 144.114 112.791C144.204 112.888 144.303 112.977 144.409 113.057H156.726C156.395 112.398 156.135 111.873 155.839 111.375C143.353 90.0525 112.317 90.1997 99.9366 111.683C99.0422 113.246 98.7324 113.73 96.3591 113.786C93.2041 113.786 90.0209 113.744 86.887 113.744H78.7249C78.7249 112.805 78.7249 112.209 78.7249 111.606C78.8446 103.027 79.0066 94.4473 79.0347 85.8609C78.9698 85.1511 79.1195 84.4382 79.4645 83.8137C79.8096 83.1892 80.3344 82.6817 80.9714 82.3562C89.8159 76.8751 99.5875 73.0394 109.81 71.0361C132.832 66.6272 154.508 70.1599 174.699 82.202C175.411 82.5354 176.005 83.0767 176.401 83.754C176.798 84.4313 176.978 85.2126 176.917 85.994C176.917 88.98 176.936 91.9683 176.973 94.959H169.67C169.328 94.9589 168.992 95.0481 168.695 95.2178C168.398 95.3875 168.151 95.6317 167.978 95.926C167.806 96.2204 167.714 96.5546 167.712 96.8953C167.71 97.2361 167.797 97.5714 167.966 97.8679L172.896 106.377L174.213 108.676L176.234 112.181L180.424 119.478C180.596 119.773 180.843 120.018 181.14 120.189C181.438 120.359 181.775 120.449 182.118 120.449C182.461 120.449 182.798 120.359 183.095 120.189C183.392 120.018 183.639 119.773 183.812 119.478L190.107 108.718L191.65 106.083L195.058 100.265L196.41 97.959C196.582 97.6637 196.672 97.3288 196.673 96.9878C196.673 96.6468 196.584 96.3116 196.414 96.0157C196.243 95.7198 195.998 95.4737 195.702 95.3018C195.406 95.1299 195.07 95.0383 194.727 95.0361" fill="#0F124D"/>
<path d="M149.275 132.795C144.684 149.618 124.838 155.057 112.324 142.945C111.953 142.555 111.534 142.213 111.077 141.928H99.1051C99.3516 142.489 99.4925 142.847 99.6756 143.19C102.896 149.005 107.848 153.684 113.85 156.582C119.851 159.48 126.608 160.456 133.19 159.375C143.367 157.594 150.986 152.148 156.226 143.309C156.663 142.573 157.085 141.627 158.304 141.627C164.642 141.627 171.029 141.55 178.318 141.55C177.614 143.611 177.255 145.391 176.346 146.695C164.43 163.826 148.585 176.253 129.62 184.826C128.52 185.247 127.3 185.232 126.211 184.784C110.662 177.732 97.1262 168.101 86.1542 155.246L89.7669 153.234L92.1191 151.931C92.4199 151.763 92.6712 151.52 92.8478 151.225C93.0243 150.931 93.1199 150.595 93.1249 150.252C93.1299 149.909 93.0441 149.571 92.8762 149.271C92.7083 148.972 92.4642 148.721 92.1684 148.545L88.6472 146.442L82.1752 142.594L81.3794 142.125L70.5834 135.711C70.2875 135.535 69.9504 135.44 69.6058 135.435C69.2612 135.43 68.9213 135.515 68.6202 135.682C68.3191 135.848 68.0674 136.091 67.8903 136.386C67.7133 136.68 67.6172 137.015 67.6116 137.358L67.4636 147.206V149.87L67.4003 153.935L67.2805 162.389C67.2749 162.731 67.3602 163.069 67.5277 163.369C67.6953 163.668 67.9393 163.918 68.235 164.094C68.5307 164.27 68.8677 164.365 69.212 164.369C69.5564 164.374 69.8958 164.288 70.1961 164.12L76.9779 160.356C90.2881 176.407 107.042 188.148 126.697 196.23C127.523 196.531 128.428 196.531 129.254 196.23C150.529 187.461 168.473 174.361 182.536 156.045C184.576 153.536 186.18 150.705 187.283 147.669V131.204H149.803C149.613 131.758 149.416 132.256 149.275 132.767" fill="#0F124D"/>
</svg>
